<svg width="16" height="16" viewBox="0 0 16 16" fill="none" xmlns="http://www.w3.org/2000/svg">
<path d="M5.99935 3.33331L10.666 3.33331" stroke="currentColor" stroke-width="1.5" stroke-linecap="round" stroke-linejoin="round"/>
<path d="M1.33268 3.49998C1.33268 4.6966 2.30273 5.66665 3.49935 5.66665C4.69597 5.66665 5.66602 4.6966 5.66602 3.49998C5.66602 2.30336 4.69597 1.33331 3.49935 1.33331C2.30273 1.33331 1.33268 2.30336 1.33268 3.49998Z" stroke="currentColor" stroke-width="1.5" stroke-linecap="round" stroke-linejoin="round"/>
<path d="M10.666 3.33331C10.666 4.43788 11.5614 5.33331 12.666 5.33331C13.7706 5.33331 14.666 4.43788 14.666 3.33331C14.666 2.22874 13.7706 1.33331 12.666 1.33331C11.5614 1.33331 10.666 2.22874 10.666 3.33331Z" stroke="currentColor" stroke-width="1.5" stroke-linecap="round" stroke-linejoin="round"/>
<path d="M10.666 12.6667C10.666 13.7713 11.5614 14.6667 12.666 14.6667C13.7706 14.6667 14.666 13.7713 14.666 12.6667C14.666 11.5621 13.7706 10.6667 12.666 10.6667C11.5614 10.6667 10.666 11.5621 10.666 12.6667Z" stroke="currentColor" stroke-width="1.5" stroke-linecap="round" stroke-linejoin="round"/>
<path d="M6.00002 3.41998C7.16669 3.71998 8.03336 4.78665 8.02669 6.04665L8.02002 8.33332C8.01335 10.08 9.13336 11.5666 10.6934 12.1133" stroke="currentColor" stroke-width="1.5" stroke-linecap="round" stroke-linejoin="round"/>
</svg>
