<svg width="16" height="16" viewBox="0 0 16 16" fill="none" xmlns="http://www.w3.org/2000/svg">
<g id="vuesax/linear/wallet-3">
<path id="Vector" d="M8.66669 7.43335H4.66669" stroke="currentColor" stroke-width="1.5" stroke-linecap="round" stroke-linejoin="round"/>
<path id="Vector_2" d="M1.33331 7.43334V4.35334C1.33331 2.99334 2.43331 1.89334 3.79331 1.89334H7.53998C8.89998 1.89334 9.99998 2.74001 9.99998 4.10001" stroke="currentColor" stroke-width="1.5" stroke-linecap="round" stroke-linejoin="round"/>
<path id="Vector_3" d="M11.6533 8.13333C11.32 8.45333 11.16 8.94665 11.2933 9.45332C11.46 10.0733 12.0733 10.4667 12.7133 10.4667H13.3333V11.4333C13.3333 12.9067 12.14 14.1 10.6666 14.1H3.99998C2.52665 14.1 1.33331 12.9067 1.33331 11.4333V6.76667C1.33331 5.29334 2.52665 4.10001 3.99998 4.10001H10.6666C12.1333 4.10001 13.3333 5.30001 13.3333 6.76667V7.73331H12.6133C12.24 7.73331 11.9 7.88 11.6533 8.13333Z" stroke="currentColor" stroke-width="1.5" stroke-linecap="round" stroke-linejoin="round"/>
<path id="Vector_4" d="M14.6667 8.41332V9.78665C14.6667 10.16 14.36 10.4667 13.98 10.4667H12.6933C11.9733 10.4667 11.3133 9.94 11.2533 9.22C11.2133 8.8 11.3733 8.40666 11.6533 8.13333C11.9 7.88 12.24 7.73331 12.6133 7.73331H13.98C14.36 7.73331 14.6667 8.03999 14.6667 8.41332Z" stroke="currentColor" stroke-width="1.5" stroke-linecap="round" stroke-linejoin="round"/>
</g>
</svg>
