<?xml version="1.0" standalone="no"?>
<!DOCTYPE svg PUBLIC "-//W3C//DTD SVG 20010904//EN"
 "http://www.w3.org/TR/2001/REC-SVG-20010904/DTD/svg10.dtd">
<svg version="1.0" xmlns="http://www.w3.org/2000/svg"
 width="554.000000pt" height="554.000000pt" viewBox="0 0 554.000000 554.000000"
 preserveAspectRatio="xMidYMid meet">
<metadata>
Created by potrace 1.14, written by Peter Selinger 2001-2017
</metadata>
<g transform="translate(0.000000,554.000000) scale(0.100000,-0.100000)"
fill="#000000" stroke="none">
<path d="M3559 5428 c-46 -22 -120 -57 -164 -78 -44 -21 -138 -66 -210 -100
-71 -34 -182 -87 -245 -117 -214 -101 -242 -117 -251 -137 -7 -17 -92 -323
-104 -376 -2 -8 -16 -60 -30 -115 -15 -55 -40 -147 -55 -205 -31 -117 -82
-308 -111 -415 -10 -38 -37 -137 -58 -220 -35 -133 -136 -509 -191 -715 -73
-271 -318 -1193 -357 -1340 -25 -97 -110 -414 -208 -780 -168 -627 -165 -616
-154 -647 14 -43 74 -71 109 -52 9 4 198 133 421 286 222 153 437 300 478 328
40 27 79 61 85 75 11 21 39 114 51 168 2 9 24 91 49 182 62 229 264 974 281
1035 8 28 25 92 39 143 13 52 27 96 30 99 4 5 44 -31 220 -202 29 -27 122
-116 207 -197 85 -80 182 -173 215 -205 211 -201 375 -357 437 -415 40 -38 79
-69 87 -69 8 -1 222 -2 475 -3 485 -2 501 -1 525 43 5 11 10 33 10 49 0 34 3
31 -320 342 -123 118 -258 249 -300 290 -43 41 -171 166 -286 276 -115 111
-246 238 -292 282 -46 44 -79 82 -73 84 5 1 58 50 118 108 60 58 189 182 287
275 99 94 202 193 231 220 29 28 131 124 226 215 95 91 189 181 209 200 223
212 260 252 260 276 0 35 -26 81 -50 89 -11 3 -238 6 -504 6 -367 0 -490 -2
-508 -12 -13 -7 -44 -33 -69 -58 -26 -25 -118 -113 -205 -196 -86 -82 -178
-170 -204 -195 -268 -257 -373 -356 -382 -359 -11 -4 -79 59 -74 68 2 3 43
152 91 331 48 179 101 372 117 430 16 58 31 116 34 130 3 14 11 45 18 70 12
39 24 81 31 115 2 6 42 154 89 330 48 176 105 385 126 465 22 80 38 154 35
165 -2 11 -4 23 -4 27 -2 13 -50 41 -75 43 -13 2 -61 -15 -107 -37z"/>
<path d="M426 4023 c-30 -16 -49 -73 -157 -479 -10 -39 -22 -81 -27 -95 -6
-15 -5 -35 1 -54 22 -63 0 -60 483 -65 400 -5 445 -7 463 -22 37 -32 35 -60
-18 -260 -250 -942 -421 -1605 -421 -1632 0 -22 8 -40 25 -56 l26 -24 328 0
c380 0 370 -2 395 87 19 65 136 507 141 527 1 8 20 76 40 150 20 74 38 142 40
150 2 8 8 35 15 60 7 25 14 52 16 60 1 8 17 65 34 125 16 61 32 119 35 130 2
11 22 88 45 170 22 83 42 159 45 170 2 11 20 79 40 150 20 72 38 140 40 152 2
12 8 37 14 55 12 38 145 536 157 588 11 50 5 82 -19 102 -11 10 -23 19 -26 19
-3 1 -385 3 -848 3 -681 2 -847 0 -867 -11z"/>
</g>
</svg>
